<svg width="34" height="33" viewBox="0 0 34 33" fill="none" xmlns="http://www.w3.org/2000/svg">
<path fill-rule="evenodd" clip-rule="evenodd" d="M17 0.0928955C8.025 0.0928955 0.75 7.3679 0.75 16.3429C0.75 25.3179 8.025 32.5929 17 32.5929C25.975 32.5929 33.25 25.3179 33.25 16.3429C33.25 7.3679 25.975 0.0928955 17 0.0928955ZM24.1333 17.2262C24.3674 16.9919 24.4989 16.6741 24.4989 16.3429C24.4989 16.0116 24.3674 15.6939 24.1333 15.4596L19.1333 10.4596C19.0189 10.3368 18.8809 10.2382 18.7276 10.1699C18.5742 10.1016 18.4087 10.0649 18.2409 10.0619C18.073 10.0589 17.9063 10.0898 17.7507 10.1527C17.595 10.2156 17.4536 10.3091 17.3349 10.4278C17.2162 10.5465 17.1227 10.6879 17.0598 10.8436C16.9969 10.9992 16.9661 11.1659 16.969 11.3338C16.972 11.5016 17.0087 11.6671 17.077 11.8205C17.1454 11.9738 17.2439 12.1118 17.3667 12.2262L20.2333 15.0929H10.75C10.4185 15.0929 10.1005 15.2246 9.86612 15.459C9.6317 15.6934 9.5 16.0114 9.5 16.3429C9.5 16.6744 9.6317 16.9924 9.86612 17.2268C10.1005 17.4612 10.4185 17.5929 10.75 17.5929H20.2333L17.3667 20.4596C17.2439 20.574 17.1454 20.712 17.077 20.8653C17.0087 21.0187 16.972 21.1842 16.969 21.352C16.9661 21.5199 16.9969 21.6866 17.0598 21.8422C17.1227 21.9979 17.2162 22.1393 17.3349 22.258C17.4536 22.3767 17.595 22.4702 17.7507 22.5331C17.9063 22.596 18.073 22.6268 18.2409 22.6239C18.4087 22.6209 18.5742 22.5842 18.7276 22.5159C18.8809 22.4475 19.0189 22.349 19.1333 22.2262L24.1333 17.2262Z" fill="#B68C5A"/>
</svg>
